<mxfile host="app.diagrams.net" modified="2023-02-05T03:51:43.937Z" agent="5.0 (Windows)" etag="QuU39-4Yz9SsjBA_uFHM" version="20.8.16" type="github">
  <diagram id="e7usdUpXo5iLbDfutmgl" name="第 1 页">
    <mxGraphModel dx="3084" dy="2359" grid="1" gridSize="10" guides="1" tooltips="1" connect="1" arrows="1" fold="1" page="1" pageScale="1" pageWidth="827" pageHeight="1169" math="0" shadow="0">
      <root>
        <mxCell id="0" />
        <mxCell id="1" parent="0" />
        <mxCell id="0c3AmFxdO18scSqZdb3u-10" style="edgeStyle=orthogonalEdgeStyle;rounded=0;orthogonalLoop=1;jettySize=auto;html=1;entryX=0.5;entryY=1;entryDx=0;entryDy=0;" parent="1" source="0c3AmFxdO18scSqZdb3u-2" target="0c3AmFxdO18scSqZdb3u-4" edge="1">
          <mxGeometry relative="1" as="geometry">
            <Array as="points">
              <mxPoint x="420" y="230" />
              <mxPoint x="420" y="230" />
            </Array>
          </mxGeometry>
        </mxCell>
        <mxCell id="0c3AmFxdO18scSqZdb3u-11" style="edgeStyle=orthogonalEdgeStyle;rounded=0;orthogonalLoop=1;jettySize=auto;html=1;entryX=0;entryY=0.5;entryDx=0;entryDy=0;" parent="1" source="0c3AmFxdO18scSqZdb3u-2" target="0c3AmFxdO18scSqZdb3u-6" edge="1">
          <mxGeometry relative="1" as="geometry" />
        </mxCell>
        <mxCell id="LtfJeAL9DBpkxnp7Dvny-33" style="edgeStyle=orthogonalEdgeStyle;rounded=0;orthogonalLoop=1;jettySize=auto;html=1;entryX=0.5;entryY=0;entryDx=0;entryDy=0;fontSize=24;" edge="1" parent="1" source="0c3AmFxdO18scSqZdb3u-2" target="ASMzy9aAmaaJTqnwQeLn-1">
          <mxGeometry relative="1" as="geometry" />
        </mxCell>
        <mxCell id="0c3AmFxdO18scSqZdb3u-2" value="update语句执行流程" style="rounded=1;whiteSpace=wrap;html=1;strokeWidth=2;fillWeight=4;hachureGap=8;hachureAngle=45;fillColor=#dae8fc;sketch=1;glass=0;strokeColor=#6c8ebf;fontSize=24;fontStyle=1" parent="1" vertex="1">
          <mxGeometry x="310" y="290" width="200" height="60" as="geometry" />
        </mxCell>
        <mxCell id="0c3AmFxdO18scSqZdb3u-12" style="edgeStyle=orthogonalEdgeStyle;rounded=0;orthogonalLoop=1;jettySize=auto;html=1;entryX=0;entryY=0.5;entryDx=0;entryDy=0;" parent="1" source="0c3AmFxdO18scSqZdb3u-4" target="0c3AmFxdO18scSqZdb3u-9" edge="1">
          <mxGeometry relative="1" as="geometry" />
        </mxCell>
        <mxCell id="LtfJeAL9DBpkxnp7Dvny-20" value="" style="edgeStyle=orthogonalEdgeStyle;rounded=0;orthogonalLoop=1;jettySize=auto;html=1;" edge="1" parent="1" source="0c3AmFxdO18scSqZdb3u-4" target="LtfJeAL9DBpkxnp7Dvny-19">
          <mxGeometry relative="1" as="geometry" />
        </mxCell>
        <mxCell id="0c3AmFxdO18scSqZdb3u-4" value="undo log(回滚日志)" style="rounded=1;whiteSpace=wrap;html=1;strokeWidth=2;fillWeight=4;hachureGap=8;hachureAngle=45;fillColor=#dae8fc;sketch=1;glass=0;strokeColor=#6c8ebf;fontSize=24;fontStyle=1" parent="1" vertex="1">
          <mxGeometry x="310" y="20" width="220" height="70" as="geometry" />
        </mxCell>
        <mxCell id="0c3AmFxdO18scSqZdb3u-50" style="edgeStyle=orthogonalEdgeStyle;rounded=0;orthogonalLoop=1;jettySize=auto;html=1;entryX=0.561;entryY=1.029;entryDx=0;entryDy=0;entryPerimeter=0;fontSize=24;" parent="1" source="0c3AmFxdO18scSqZdb3u-6" target="0c3AmFxdO18scSqZdb3u-9" edge="1">
          <mxGeometry relative="1" as="geometry">
            <Array as="points">
              <mxPoint x="789" y="230" />
              <mxPoint x="789" y="230" />
            </Array>
          </mxGeometry>
        </mxCell>
        <mxCell id="LtfJeAL9DBpkxnp7Dvny-28" value="" style="edgeStyle=orthogonalEdgeStyle;rounded=0;orthogonalLoop=1;jettySize=auto;html=1;fontSize=24;" edge="1" parent="1" source="0c3AmFxdO18scSqZdb3u-6" target="LtfJeAL9DBpkxnp7Dvny-27">
          <mxGeometry relative="1" as="geometry" />
        </mxCell>
        <mxCell id="0c3AmFxdO18scSqZdb3u-6" value="redo log(重做日志)" style="rounded=1;whiteSpace=wrap;html=1;strokeWidth=2;fillWeight=4;hachureGap=8;hachureAngle=45;fillColor=#dae8fc;sketch=1;glass=0;strokeColor=#6c8ebf;fontSize=24;fontStyle=1" parent="1" vertex="1">
          <mxGeometry x="680" y="285" width="210" height="70" as="geometry" />
        </mxCell>
        <mxCell id="0c3AmFxdO18scSqZdb3u-14" value="" style="edgeStyle=orthogonalEdgeStyle;rounded=0;orthogonalLoop=1;jettySize=auto;html=1;" parent="1" source="0c3AmFxdO18scSqZdb3u-9" target="0c3AmFxdO18scSqZdb3u-13" edge="1">
          <mxGeometry relative="1" as="geometry" />
        </mxCell>
        <mxCell id="0c3AmFxdO18scSqZdb3u-19" style="edgeStyle=orthogonalEdgeStyle;rounded=0;orthogonalLoop=1;jettySize=auto;html=1;entryX=0.452;entryY=-0.071;entryDx=0;entryDy=0;entryPerimeter=0;" parent="1" source="0c3AmFxdO18scSqZdb3u-9" target="0c3AmFxdO18scSqZdb3u-6" edge="1">
          <mxGeometry relative="1" as="geometry" />
        </mxCell>
        <mxCell id="LtfJeAL9DBpkxnp7Dvny-26" value="" style="edgeStyle=orthogonalEdgeStyle;rounded=0;orthogonalLoop=1;jettySize=auto;html=1;fontSize=24;" edge="1" parent="1" source="0c3AmFxdO18scSqZdb3u-9" target="LtfJeAL9DBpkxnp7Dvny-25">
          <mxGeometry relative="1" as="geometry" />
        </mxCell>
        <mxCell id="0c3AmFxdO18scSqZdb3u-9" value="Buffer pool(缓冲池)" style="rounded=1;whiteSpace=wrap;html=1;strokeWidth=2;fillWeight=4;hachureGap=8;hachureAngle=45;fillColor=#dae8fc;sketch=1;glass=0;strokeColor=#6c8ebf;fontSize=24;fontStyle=1" parent="1" vertex="1">
          <mxGeometry x="660" y="20" width="230" height="70" as="geometry" />
        </mxCell>
        <mxCell id="0c3AmFxdO18scSqZdb3u-18" value="" style="edgeStyle=orthogonalEdgeStyle;rounded=0;orthogonalLoop=1;jettySize=auto;html=1;" parent="1" source="0c3AmFxdO18scSqZdb3u-13" target="0c3AmFxdO18scSqZdb3u-17" edge="1">
          <mxGeometry relative="1" as="geometry" />
        </mxCell>
        <mxCell id="0c3AmFxdO18scSqZdb3u-13" value="InnoDB 是如何存储数据的？" style="whiteSpace=wrap;html=1;fontSize=24;fillColor=#dae8fc;strokeColor=#6c8ebf;rounded=1;strokeWidth=2;fillWeight=4;hachureGap=8;hachureAngle=45;sketch=1;glass=0;fontStyle=1;" parent="1" vertex="1">
          <mxGeometry x="1110" y="20" width="250" height="70" as="geometry" />
        </mxCell>
        <mxCell id="0c3AmFxdO18scSqZdb3u-17" value="B+ 树是如何进行查询的？" style="whiteSpace=wrap;html=1;fontSize=24;fillColor=#dae8fc;strokeColor=#6c8ebf;rounded=1;strokeWidth=2;fillWeight=4;hachureGap=8;hachureAngle=45;sketch=1;glass=0;fontStyle=1;" parent="1" vertex="1">
          <mxGeometry x="1093.75" y="-120" width="282.5" height="60" as="geometry" />
        </mxCell>
        <mxCell id="0c3AmFxdO18scSqZdb3u-22" value="" style="endArrow=classic;html=1;rounded=0;entryX=0;entryY=0;entryDx=0;entryDy=0;exitX=1;exitY=1;exitDx=0;exitDy=0;" parent="1" source="0c3AmFxdO18scSqZdb3u-4" target="0c3AmFxdO18scSqZdb3u-6" edge="1">
          <mxGeometry width="50" height="50" relative="1" as="geometry">
            <mxPoint x="570" y="200" as="sourcePoint" />
            <mxPoint x="640" y="160" as="targetPoint" />
            <Array as="points">
              <mxPoint x="640" y="230" />
            </Array>
          </mxGeometry>
        </mxCell>
        <mxCell id="0c3AmFxdO18scSqZdb3u-44" style="edgeStyle=orthogonalEdgeStyle;rounded=0;orthogonalLoop=1;jettySize=auto;html=1;entryX=0;entryY=0.5;entryDx=0;entryDy=0;fontSize=24;" parent="1" target="0c3AmFxdO18scSqZdb3u-30" edge="1">
          <mxGeometry relative="1" as="geometry">
            <mxPoint x="1210" y="502.5" as="sourcePoint" />
          </mxGeometry>
        </mxCell>
        <mxCell id="0c3AmFxdO18scSqZdb3u-56" style="edgeStyle=orthogonalEdgeStyle;rounded=0;orthogonalLoop=1;jettySize=auto;html=1;entryX=0;entryY=0.5;entryDx=0;entryDy=0;fontSize=24;" parent="1" source="0c3AmFxdO18scSqZdb3u-30" target="0c3AmFxdO18scSqZdb3u-48" edge="1">
          <mxGeometry relative="1" as="geometry" />
        </mxCell>
        <mxCell id="0c3AmFxdO18scSqZdb3u-59" style="edgeStyle=orthogonalEdgeStyle;rounded=0;orthogonalLoop=1;jettySize=auto;html=1;entryX=0.5;entryY=0;entryDx=0;entryDy=0;entryPerimeter=0;fontSize=24;" parent="1" source="0c3AmFxdO18scSqZdb3u-30" target="0c3AmFxdO18scSqZdb3u-58" edge="1">
          <mxGeometry relative="1" as="geometry" />
        </mxCell>
        <mxCell id="0c3AmFxdO18scSqZdb3u-30" value="redo log file" style="whiteSpace=wrap;html=1;fontSize=24;fillColor=#dae8fc;strokeColor=#6c8ebf;rounded=1;glass=0;sketch=1;fillWeight=4;hachureGap=8;hachureAngle=45;strokeWidth=2;" parent="1" vertex="1">
          <mxGeometry x="1120" y="468.75" width="195" height="71.25" as="geometry" />
        </mxCell>
        <mxCell id="0c3AmFxdO18scSqZdb3u-48" value="写满如何处理" style="whiteSpace=wrap;html=1;fontSize=24;fillColor=#dae8fc;strokeColor=#6c8ebf;rounded=1;glass=0;sketch=1;fillWeight=4;hachureGap=8;hachureAngle=45;strokeWidth=2;" parent="1" vertex="1">
          <mxGeometry x="1430" y="475" width="175" height="60" as="geometry" />
        </mxCell>
        <mxCell id="0c3AmFxdO18scSqZdb3u-55" style="edgeStyle=orthogonalEdgeStyle;rounded=0;orthogonalLoop=1;jettySize=auto;html=1;fontSize=24;" parent="1" source="0c3AmFxdO18scSqZdb3u-52" edge="1">
          <mxGeometry relative="1" as="geometry">
            <mxPoint x="1220" y="470" as="targetPoint" />
            <Array as="points">
              <mxPoint x="1220" y="400" />
              <mxPoint x="1220" y="400" />
            </Array>
          </mxGeometry>
        </mxCell>
        <mxCell id="LtfJeAL9DBpkxnp7Dvny-30" value="" style="edgeStyle=orthogonalEdgeStyle;rounded=0;orthogonalLoop=1;jettySize=auto;html=1;fontSize=24;" edge="1" parent="1" source="0c3AmFxdO18scSqZdb3u-52" target="LtfJeAL9DBpkxnp7Dvny-29">
          <mxGeometry relative="1" as="geometry" />
        </mxCell>
        <mxCell id="LtfJeAL9DBpkxnp7Dvny-32" value="" style="edgeStyle=orthogonalEdgeStyle;rounded=0;orthogonalLoop=1;jettySize=auto;html=1;fontSize=24;" edge="1" parent="1" source="0c3AmFxdO18scSqZdb3u-52" target="LtfJeAL9DBpkxnp7Dvny-31">
          <mxGeometry relative="1" as="geometry" />
        </mxCell>
        <mxCell id="0c3AmFxdO18scSqZdb3u-52" value="redo log buffer" style="whiteSpace=wrap;html=1;rounded=1;glass=0;sketch=1;fillWeight=4;hachureGap=8;hachureAngle=45;strokeColor=#6c8ebf;strokeWidth=2;fontFamily=Helvetica;fontSize=24;fontColor=default;fillColor=#dae8fc;" parent="1" vertex="1">
          <mxGeometry x="1120" y="280" width="200" height="65" as="geometry" />
        </mxCell>
        <mxCell id="0c3AmFxdO18scSqZdb3u-53" value="" style="endArrow=classic;html=1;rounded=0;fontSize=24;exitX=1;exitY=1;exitDx=0;exitDy=0;" parent="1" source="0c3AmFxdO18scSqZdb3u-9" edge="1">
          <mxGeometry width="50" height="50" relative="1" as="geometry">
            <mxPoint x="1090" y="250" as="sourcePoint" />
            <mxPoint x="1120" y="280" as="targetPoint" />
          </mxGeometry>
        </mxCell>
        <mxCell id="0c3AmFxdO18scSqZdb3u-58" value="" style="fontColor=#0066CC;verticalAlign=top;verticalLabelPosition=bottom;labelPosition=center;align=center;html=1;outlineConnect=0;fillColor=#CCCCCC;strokeColor=#6881B3;gradientColor=none;gradientDirection=north;strokeWidth=2;shape=mxgraph.networks.storage;fontSize=24;" parent="1" vertex="1">
          <mxGeometry x="1167.5" y="640" width="100" height="100" as="geometry" />
        </mxCell>
        <mxCell id="0c3AmFxdO18scSqZdb3u-60" value="磁盘" style="text;html=1;align=center;verticalAlign=middle;resizable=0;points=[];autosize=1;strokeColor=none;fillColor=none;fontSize=24;" parent="1" vertex="1">
          <mxGeometry x="1182.5" y="740" width="70" height="40" as="geometry" />
        </mxCell>
        <mxCell id="LtfJeAL9DBpkxnp7Dvny-4" style="edgeStyle=orthogonalEdgeStyle;rounded=0;orthogonalLoop=1;jettySize=auto;html=1;entryX=0.5;entryY=0;entryDx=0;entryDy=0;" edge="1" parent="1" source="ASMzy9aAmaaJTqnwQeLn-1" target="RjXducxcz7Og2gROmxH5-5">
          <mxGeometry relative="1" as="geometry">
            <Array as="points">
              <mxPoint x="410" y="600" />
              <mxPoint x="260" y="600" />
              <mxPoint x="260" y="690" />
            </Array>
          </mxGeometry>
        </mxCell>
        <mxCell id="LtfJeAL9DBpkxnp7Dvny-5" style="edgeStyle=orthogonalEdgeStyle;rounded=0;orthogonalLoop=1;jettySize=auto;html=1;entryX=0.5;entryY=0;entryDx=0;entryDy=0;" edge="1" parent="1" source="ASMzy9aAmaaJTqnwQeLn-1" target="RjXducxcz7Og2gROmxH5-7">
          <mxGeometry relative="1" as="geometry">
            <Array as="points">
              <mxPoint x="410" y="660" />
            </Array>
          </mxGeometry>
        </mxCell>
        <mxCell id="LtfJeAL9DBpkxnp7Dvny-7" style="edgeStyle=orthogonalEdgeStyle;rounded=0;orthogonalLoop=1;jettySize=auto;html=1;" edge="1" parent="1" source="ASMzy9aAmaaJTqnwQeLn-1" target="RjXducxcz7Og2gROmxH5-6">
          <mxGeometry relative="1" as="geometry">
            <Array as="points">
              <mxPoint x="410" y="600" />
              <mxPoint x="560" y="600" />
            </Array>
          </mxGeometry>
        </mxCell>
        <mxCell id="LtfJeAL9DBpkxnp7Dvny-35" style="edgeStyle=orthogonalEdgeStyle;rounded=0;orthogonalLoop=1;jettySize=auto;html=1;entryX=1;entryY=0.5;entryDx=0;entryDy=0;fontSize=24;" edge="1" parent="1" source="ASMzy9aAmaaJTqnwQeLn-1" target="ASMzy9aAmaaJTqnwQeLn-6">
          <mxGeometry relative="1" as="geometry" />
        </mxCell>
        <mxCell id="LtfJeAL9DBpkxnp7Dvny-46" value="" style="edgeStyle=orthogonalEdgeStyle;rounded=0;orthogonalLoop=1;jettySize=auto;html=1;fontSize=24;" edge="1" parent="1" source="ASMzy9aAmaaJTqnwQeLn-1" target="LtfJeAL9DBpkxnp7Dvny-45">
          <mxGeometry relative="1" as="geometry" />
        </mxCell>
        <mxCell id="ASMzy9aAmaaJTqnwQeLn-1" value="bin log(归档日志)" style="rounded=1;whiteSpace=wrap;html=1;strokeWidth=2;fillWeight=4;hachureGap=8;hachureAngle=45;fillColor=#dae8fc;sketch=1;glass=0;strokeColor=#6c8ebf;fontSize=24;fontStyle=1" parent="1" vertex="1">
          <mxGeometry x="310" y="480" width="200" height="60" as="geometry" />
        </mxCell>
        <mxCell id="LtfJeAL9DBpkxnp7Dvny-13" value="" style="edgeStyle=orthogonalEdgeStyle;rounded=0;orthogonalLoop=1;jettySize=auto;html=1;" edge="1" parent="1" source="ASMzy9aAmaaJTqnwQeLn-6" target="LtfJeAL9DBpkxnp7Dvny-12">
          <mxGeometry relative="1" as="geometry" />
        </mxCell>
        <mxCell id="LtfJeAL9DBpkxnp7Dvny-36" style="edgeStyle=orthogonalEdgeStyle;rounded=0;orthogonalLoop=1;jettySize=auto;html=1;entryX=0.586;entryY=-0.014;entryDx=0;entryDy=0;entryPerimeter=0;fontSize=24;" edge="1" parent="1" source="ASMzy9aAmaaJTqnwQeLn-6" target="LtfJeAL9DBpkxnp7Dvny-15">
          <mxGeometry relative="1" as="geometry" />
        </mxCell>
        <mxCell id="ASMzy9aAmaaJTqnwQeLn-6" value="主从复制" style="whiteSpace=wrap;html=1;rounded=1;glass=0;sketch=1;fillWeight=4;hachureGap=8;hachureAngle=45;strokeColor=#6c8ebf;strokeWidth=2;fontFamily=Helvetica;fontSize=24;fontColor=default;fillColor=#dae8fc;" parent="1" vertex="1">
          <mxGeometry x="-50" y="477.5" width="160" height="65" as="geometry" />
        </mxCell>
        <mxCell id="RjXducxcz7Og2gROmxH5-13" value="" style="edgeStyle=orthogonalEdgeStyle;rounded=0;orthogonalLoop=1;jettySize=auto;html=1;" parent="1" source="RjXducxcz7Og2gROmxH5-5" target="RjXducxcz7Og2gROmxH5-12" edge="1">
          <mxGeometry relative="1" as="geometry" />
        </mxCell>
        <mxCell id="RjXducxcz7Og2gROmxH5-5" value="线程" style="whiteSpace=wrap;html=1;rounded=1;glass=0;sketch=1;fillWeight=4;hachureGap=8;hachureAngle=45;strokeColor=#6c8ebf;strokeWidth=2;fontFamily=Helvetica;fontSize=24;fontColor=default;fillColor=#dae8fc;" parent="1" vertex="1">
          <mxGeometry x="215" y="690" width="90" height="50" as="geometry" />
        </mxCell>
        <mxCell id="LtfJeAL9DBpkxnp7Dvny-37" style="edgeStyle=orthogonalEdgeStyle;rounded=0;orthogonalLoop=1;jettySize=auto;html=1;entryX=0.5;entryY=0;entryDx=0;entryDy=0;fontSize=24;" edge="1" parent="1" source="RjXducxcz7Og2gROmxH5-6" target="RjXducxcz7Og2gROmxH5-15">
          <mxGeometry relative="1" as="geometry" />
        </mxCell>
        <mxCell id="RjXducxcz7Og2gROmxH5-6" value="线程" style="whiteSpace=wrap;html=1;rounded=1;glass=0;sketch=1;fillWeight=4;hachureGap=8;hachureAngle=45;strokeColor=#6c8ebf;strokeWidth=2;fontFamily=Helvetica;fontSize=24;fontColor=default;fillColor=#dae8fc;" parent="1" vertex="1">
          <mxGeometry x="520" y="690" width="90" height="53.75" as="geometry" />
        </mxCell>
        <mxCell id="RjXducxcz7Og2gROmxH5-16" style="edgeStyle=orthogonalEdgeStyle;rounded=0;orthogonalLoop=1;jettySize=auto;html=1;entryX=0.5;entryY=0;entryDx=0;entryDy=0;" parent="1" source="RjXducxcz7Og2gROmxH5-7" target="RjXducxcz7Og2gROmxH5-14" edge="1">
          <mxGeometry relative="1" as="geometry">
            <Array as="points">
              <mxPoint x="415" y="750" />
              <mxPoint x="415" y="750" />
            </Array>
          </mxGeometry>
        </mxCell>
        <mxCell id="RjXducxcz7Og2gROmxH5-7" value="线程" style="whiteSpace=wrap;html=1;rounded=1;glass=0;sketch=1;fillWeight=4;hachureGap=8;hachureAngle=45;strokeColor=#6c8ebf;strokeWidth=2;fontFamily=Helvetica;fontSize=24;fontColor=default;fillColor=#dae8fc;" parent="1" vertex="1">
          <mxGeometry x="365" y="690" width="90" height="55" as="geometry" />
        </mxCell>
        <mxCell id="LtfJeAL9DBpkxnp7Dvny-55" style="edgeStyle=orthogonalEdgeStyle;rounded=0;orthogonalLoop=1;jettySize=auto;html=1;fontSize=24;entryX=0;entryY=0.5;entryDx=0;entryDy=0;" edge="1" parent="1" source="RjXducxcz7Og2gROmxH5-12" target="LtfJeAL9DBpkxnp7Dvny-53">
          <mxGeometry relative="1" as="geometry">
            <mxPoint x="340" y="950" as="targetPoint" />
            <Array as="points">
              <mxPoint x="260" y="950" />
            </Array>
          </mxGeometry>
        </mxCell>
        <mxCell id="RjXducxcz7Og2gROmxH5-12" value="bing log cache" style="whiteSpace=wrap;html=1;fontSize=24;fillColor=#dae8fc;strokeColor=#6c8ebf;rounded=1;glass=0;sketch=1;fillWeight=4;hachureGap=8;hachureAngle=45;strokeWidth=2;" parent="1" vertex="1">
          <mxGeometry x="200" y="820" width="120" height="60" as="geometry" />
        </mxCell>
        <mxCell id="LtfJeAL9DBpkxnp7Dvny-38" style="edgeStyle=orthogonalEdgeStyle;rounded=0;orthogonalLoop=1;jettySize=auto;html=1;entryX=0.5;entryY=0;entryDx=0;entryDy=0;entryPerimeter=0;fontSize=24;" edge="1" parent="1" source="RjXducxcz7Og2gROmxH5-20" target="RjXducxcz7Og2gROmxH5-31">
          <mxGeometry relative="1" as="geometry" />
        </mxCell>
        <mxCell id="RjXducxcz7Og2gROmxH5-20" value="binlog " style="whiteSpace=wrap;html=1;rounded=1;glass=0;sketch=1;fillWeight=4;hachureGap=8;hachureAngle=45;strokeColor=#6c8ebf;strokeWidth=2;fontFamily=Helvetica;fontSize=24;fontColor=default;fillColor=#dae8fc;" parent="1" vertex="1">
          <mxGeometry x="330" y="1080" width="160" height="65" as="geometry" />
        </mxCell>
        <mxCell id="RjXducxcz7Og2gROmxH5-26" value="&lt;font style=&quot;font-size: 26px;&quot;&gt;write&lt;/font&gt;" style="text;html=1;align=center;verticalAlign=middle;resizable=0;points=[];autosize=1;strokeColor=none;fillColor=none;" parent="1" vertex="1">
          <mxGeometry x="320" y="1010" width="80" height="40" as="geometry" />
        </mxCell>
        <mxCell id="RjXducxcz7Og2gROmxH5-29" value="&lt;span style=&quot;color: rgb(0, 0, 0); font-family: Helvetica; font-size: 26px; font-style: normal; font-variant-ligatures: normal; font-variant-caps: normal; font-weight: 400; letter-spacing: normal; orphans: 2; text-align: center; text-indent: 0px; text-transform: none; widows: 2; word-spacing: 0px; -webkit-text-stroke-width: 0px; background-color: rgb(251, 251, 251); text-decoration-thickness: initial; text-decoration-style: initial; text-decoration-color: initial; float: none; display: inline !important;&quot;&gt;write&lt;/span&gt;" style="text;whiteSpace=wrap;html=1;fontSize=26;" parent="1" vertex="1">
          <mxGeometry x="1120" y="380" width="90" height="50" as="geometry" />
        </mxCell>
        <mxCell id="RjXducxcz7Og2gROmxH5-30" value="fsync" style="text;html=1;align=center;verticalAlign=middle;resizable=0;points=[];autosize=1;strokeColor=none;fillColor=none;fontSize=26;" parent="1" vertex="1">
          <mxGeometry x="1120" y="560" width="80" height="40" as="geometry" />
        </mxCell>
        <mxCell id="RjXducxcz7Og2gROmxH5-31" value="" style="fontColor=#0066CC;verticalAlign=top;verticalLabelPosition=bottom;labelPosition=center;align=center;html=1;outlineConnect=0;fillColor=#CCCCCC;strokeColor=#6881B3;gradientColor=none;gradientDirection=north;strokeWidth=2;shape=mxgraph.networks.storage;fontSize=24;" parent="1" vertex="1">
          <mxGeometry x="360" y="1260" width="100" height="100" as="geometry" />
        </mxCell>
        <mxCell id="RjXducxcz7Og2gROmxH5-32" value="磁盘" style="text;html=1;align=center;verticalAlign=middle;resizable=0;points=[];autosize=1;strokeColor=none;fillColor=none;fontSize=24;" parent="1" vertex="1">
          <mxGeometry x="260" y="1300" width="70" height="40" as="geometry" />
        </mxCell>
        <mxCell id="RjXducxcz7Og2gROmxH5-34" value="&lt;span style=&quot;color: rgb(0, 0, 0); font-family: Helvetica; font-size: 26px; font-style: normal; font-variant-ligatures: normal; font-variant-caps: normal; font-weight: 400; letter-spacing: normal; orphans: 2; text-align: center; text-indent: 0px; text-transform: none; widows: 2; word-spacing: 0px; -webkit-text-stroke-width: 0px; background-color: rgb(251, 251, 251); text-decoration-thickness: initial; text-decoration-style: initial; text-decoration-color: initial; float: none; display: inline !important;&quot;&gt;fsync&lt;/span&gt;" style="text;whiteSpace=wrap;html=1;fontSize=26;" parent="1" vertex="1">
          <mxGeometry x="310" y="1190" width="90" height="50" as="geometry" />
        </mxCell>
        <mxCell id="RjXducxcz7Og2gROmxH5-15" value="bing log cache" style="whiteSpace=wrap;html=1;fontSize=24;fillColor=#dae8fc;strokeColor=#6c8ebf;rounded=1;glass=0;sketch=1;fillWeight=4;hachureGap=8;hachureAngle=45;strokeWidth=2;" parent="1" vertex="1">
          <mxGeometry x="505" y="820" width="120" height="60" as="geometry" />
        </mxCell>
        <mxCell id="LtfJeAL9DBpkxnp7Dvny-56" style="edgeStyle=orthogonalEdgeStyle;rounded=0;orthogonalLoop=1;jettySize=auto;html=1;entryX=0.5;entryY=0;entryDx=0;entryDy=0;fontSize=24;" edge="1" parent="1" source="RjXducxcz7Og2gROmxH5-14" target="LtfJeAL9DBpkxnp7Dvny-53">
          <mxGeometry relative="1" as="geometry" />
        </mxCell>
        <mxCell id="RjXducxcz7Og2gROmxH5-14" value="bing log cache" style="whiteSpace=wrap;html=1;fontSize=24;fillColor=#dae8fc;strokeColor=#6c8ebf;rounded=1;glass=0;sketch=1;fillWeight=4;hachureGap=8;hachureAngle=45;strokeWidth=2;" parent="1" vertex="1">
          <mxGeometry x="353.5" y="820" width="120" height="60" as="geometry" />
        </mxCell>
        <mxCell id="LtfJeAL9DBpkxnp7Dvny-12" value="实现" style="whiteSpace=wrap;html=1;fontSize=24;fillColor=#dae8fc;strokeColor=#6c8ebf;rounded=1;glass=0;sketch=1;fillWeight=4;hachureGap=8;hachureAngle=45;strokeWidth=2;" vertex="1" parent="1">
          <mxGeometry x="-120" y="600" width="120" height="60" as="geometry" />
        </mxCell>
        <mxCell id="LtfJeAL9DBpkxnp7Dvny-15" value="模型" style="whiteSpace=wrap;html=1;rounded=1;glass=0;sketch=1;fillWeight=4;hachureGap=8;hachureAngle=45;strokeColor=#6c8ebf;strokeWidth=2;fontFamily=Helvetica;fontSize=24;fontColor=default;fillColor=#dae8fc;" vertex="1" parent="1">
          <mxGeometry x="40" y="600" width="120" height="60" as="geometry" />
        </mxCell>
        <mxCell id="LtfJeAL9DBpkxnp7Dvny-19" value="功能" style="whiteSpace=wrap;html=1;fontSize=24;fillColor=#dae8fc;strokeColor=#6c8ebf;rounded=1;strokeWidth=2;fillWeight=4;hachureGap=8;hachureAngle=45;sketch=1;glass=0;fontStyle=1;" vertex="1" parent="1">
          <mxGeometry x="360" y="-110" width="120" height="60" as="geometry" />
        </mxCell>
        <mxCell id="LtfJeAL9DBpkxnp7Dvny-24" value="&lt;font style=&quot;font-size: 24px;&quot;&gt;两者的区别与联系&lt;/font&gt;" style="text;html=1;align=center;verticalAlign=middle;resizable=0;points=[];autosize=1;strokeColor=none;fillColor=none;" vertex="1" parent="1">
          <mxGeometry x="490" y="150" width="220" height="40" as="geometry" />
        </mxCell>
        <mxCell id="LtfJeAL9DBpkxnp7Dvny-25" value="内容" style="whiteSpace=wrap;html=1;fontSize=24;fillColor=#dae8fc;strokeColor=#6c8ebf;rounded=1;strokeWidth=2;fillWeight=4;hachureGap=8;hachureAngle=45;sketch=1;glass=0;fontStyle=1;" vertex="1" parent="1">
          <mxGeometry x="715" y="-125" width="120" height="60" as="geometry" />
        </mxCell>
        <mxCell id="LtfJeAL9DBpkxnp7Dvny-27" value="功能" style="whiteSpace=wrap;html=1;fontSize=24;fillColor=#dae8fc;strokeColor=#6c8ebf;rounded=1;strokeWidth=2;fillWeight=4;hachureGap=8;hachureAngle=45;sketch=1;glass=0;fontStyle=1;" vertex="1" parent="1">
          <mxGeometry x="725" y="482.5" width="120" height="60" as="geometry" />
        </mxCell>
        <mxCell id="LtfJeAL9DBpkxnp7Dvny-29" value="参数控制" style="whiteSpace=wrap;html=1;fontSize=24;fillColor=#dae8fc;strokeColor=#6c8ebf;rounded=1;glass=0;sketch=1;fillWeight=4;hachureGap=8;hachureAngle=45;strokeWidth=2;" vertex="1" parent="1">
          <mxGeometry x="1160" y="150" width="120" height="60" as="geometry" />
        </mxCell>
        <mxCell id="LtfJeAL9DBpkxnp7Dvny-31" value="刷盘时机" style="whiteSpace=wrap;html=1;fontSize=24;fillColor=#dae8fc;strokeColor=#6c8ebf;rounded=1;glass=0;sketch=1;fillWeight=4;hachureGap=8;hachureAngle=45;strokeWidth=2;" vertex="1" parent="1">
          <mxGeometry x="1440" y="282.5" width="120" height="60" as="geometry" />
        </mxCell>
        <mxCell id="LtfJeAL9DBpkxnp7Dvny-39" value="参数控制" style="whiteSpace=wrap;html=1;fontSize=24;fillColor=#dae8fc;strokeColor=#6c8ebf;rounded=1;glass=0;sketch=1;fillWeight=4;hachureGap=8;hachureAngle=45;strokeWidth=2;" vertex="1" parent="1">
          <mxGeometry x="650" y="920" width="120" height="60" as="geometry" />
        </mxCell>
        <mxCell id="LtfJeAL9DBpkxnp7Dvny-43" value="" style="endArrow=classic;html=1;rounded=0;entryX=1;entryY=0;entryDx=0;entryDy=0;exitX=0;exitY=1;exitDx=0;exitDy=0;" edge="1" parent="1" source="0c3AmFxdO18scSqZdb3u-6" target="ASMzy9aAmaaJTqnwQeLn-1">
          <mxGeometry width="50" height="50" relative="1" as="geometry">
            <mxPoint x="555" y="350" as="sourcePoint" />
            <mxPoint x="705" y="545" as="targetPoint" />
            <Array as="points" />
          </mxGeometry>
        </mxCell>
        <mxCell id="LtfJeAL9DBpkxnp7Dvny-44" value="&lt;font style=&quot;font-size: 24px;&quot;&gt;两者的区别与联系&lt;/font&gt;" style="text;html=1;align=center;verticalAlign=middle;resizable=0;points=[];autosize=1;strokeColor=none;fillColor=none;" vertex="1" parent="1">
          <mxGeometry x="510" y="390" width="220" height="40" as="geometry" />
        </mxCell>
        <mxCell id="LtfJeAL9DBpkxnp7Dvny-45" value="功能" style="whiteSpace=wrap;html=1;fontSize=24;fillColor=#dae8fc;strokeColor=#6c8ebf;rounded=1;strokeWidth=2;fillWeight=4;hachureGap=8;hachureAngle=45;sketch=1;glass=0;fontStyle=1;" vertex="1" parent="1">
          <mxGeometry x="570" y="480" width="120" height="60" as="geometry" />
        </mxCell>
        <mxCell id="LtfJeAL9DBpkxnp7Dvny-47" style="edgeStyle=orthogonalEdgeStyle;rounded=0;orthogonalLoop=1;jettySize=auto;html=1;exitX=1;exitY=1;exitDx=0;exitDy=0;entryX=0.916;entryY=1.003;entryDx=0;entryDy=0;entryPerimeter=0;fontSize=24;" edge="1" parent="1" source="RjXducxcz7Og2gROmxH5-20" target="RjXducxcz7Og2gROmxH5-20">
          <mxGeometry relative="1" as="geometry" />
        </mxCell>
        <mxCell id="LtfJeAL9DBpkxnp7Dvny-54" value="" style="edgeStyle=orthogonalEdgeStyle;rounded=0;orthogonalLoop=1;jettySize=auto;html=1;entryX=0.5;entryY=0;entryDx=0;entryDy=0;fontSize=24;endArrow=none;" edge="1" parent="1" source="RjXducxcz7Og2gROmxH5-15" target="LtfJeAL9DBpkxnp7Dvny-53">
          <mxGeometry relative="1" as="geometry">
            <mxPoint x="565.0000000000005" y="880" as="sourcePoint" />
            <mxPoint x="413.5" y="1012.5" as="targetPoint" />
            <Array as="points">
              <mxPoint x="565" y="950" />
            </Array>
          </mxGeometry>
        </mxCell>
        <mxCell id="LtfJeAL9DBpkxnp7Dvny-57" style="edgeStyle=orthogonalEdgeStyle;rounded=0;orthogonalLoop=1;jettySize=auto;html=1;entryX=0.5;entryY=0;entryDx=0;entryDy=0;fontSize=24;" edge="1" parent="1" source="LtfJeAL9DBpkxnp7Dvny-53" target="RjXducxcz7Og2gROmxH5-20">
          <mxGeometry relative="1" as="geometry">
            <Array as="points">
              <mxPoint x="410" y="1000" />
              <mxPoint x="410" y="1000" />
            </Array>
          </mxGeometry>
        </mxCell>
        <mxCell id="LtfJeAL9DBpkxnp7Dvny-58" style="edgeStyle=orthogonalEdgeStyle;rounded=0;orthogonalLoop=1;jettySize=auto;html=1;fontSize=24;" edge="1" parent="1" source="LtfJeAL9DBpkxnp7Dvny-53" target="LtfJeAL9DBpkxnp7Dvny-39">
          <mxGeometry relative="1" as="geometry" />
        </mxCell>
        <mxCell id="LtfJeAL9DBpkxnp7Dvny-53" value="事务提交" style="whiteSpace=wrap;html=1;rounded=1;glass=0;sketch=1;fillWeight=4;hachureGap=8;hachureAngle=45;strokeColor=#6c8ebf;strokeWidth=2;fontFamily=Helvetica;fontSize=24;fontColor=default;fillColor=#dae8fc;" vertex="1" parent="1">
          <mxGeometry x="353" y="920" width="120" height="60" as="geometry" />
        </mxCell>
      </root>
    </mxGraphModel>
  </diagram>
</mxfile>
